<svg width="23" height="29" viewBox="0 0 23 29" fill="none" xmlns="http://www.w3.org/2000/svg">
<path d="M18.6132 19.1938C18.5801 19.2292 18.5489 19.2666 18.5158 19.302C17.1905 20.7164 15.7289 21.3754 13.919 21.3754C13.7867 21.3754 13.6524 21.3714 13.4831 21.3616C11.6108 21.2967 10.1259 20.5826 8.8142 19.1111C7.47913 17.6141 6.87581 15.9873 6.92058 13.9768C6.94198 11.9959 7.61925 10.3513 8.99519 8.9487C10.3497 7.56577 11.8736 6.92054 13.7906 6.92054H13.9034C15.7464 6.92054 17.2139 7.5638 18.5256 8.94673C18.5703 8.99394 18.6112 9.04115 18.654 9.08837C19.3235 6.83201 20.464 4.76057 22.0559 2.88979C19.7867 1.07998 17.136 0.110161 14.1467 0.00786815C13.9852 0.00196661 13.8256 0 13.666 0C10.015 0 6.81548 1.36916 4.15702 4.07206C1.39735 6.87332 0 10.2824 0 14.203C0 18.1236 1.29809 21.2632 3.8612 23.9937C6.43793 26.7399 9.6277 28.1798 13.3351 28.2743C13.4986 28.2802 13.6621 28.2821 13.8236 28.2821C16.8733 28.2821 19.6115 27.3221 21.9898 25.4297C20.3997 23.5491 19.271 21.4639 18.6151 19.1938H18.6132Z" fill="url(#paint0_linear_662_12763)"/>
<defs>
<linearGradient id="paint0_linear_662_12763" x1="10.7701" y1="31.0044" x2="11.0255" y2="-4.30943" gradientUnits="userSpaceOnUse">
<stop stop-color="#DA27DA"/>
<stop offset="1" stop-color="#FF0067"/>
</linearGradient>
</defs>
</svg>
